<mxfile host="Electron" agent="Mozilla/5.0 (Macintosh; Intel Mac OS X 10_15_7) AppleWebKit/537.36 (KHTML, like Gecko) draw.io/27.0.9 Chrome/134.0.6998.205 Electron/35.4.0 Safari/537.36" version="27.0.9">
  <diagram name="Page-1" id="NaD-YWRR8ZypTBXscv4Z">
    <mxGraphModel dx="946" dy="613" grid="1" gridSize="10" guides="1" tooltips="1" connect="1" arrows="1" fold="1" page="1" pageScale="1" pageWidth="850" pageHeight="1100" math="0" shadow="0">
      <root>
        <mxCell id="0" />
        <mxCell id="1" parent="0" />
        <mxCell id="JqEnsVnNaXc9Rsa2S4pe-1" value="Comparable" style="swimlane;fontStyle=1;align=center;verticalAlign=top;childLayout=stackLayout;horizontal=1;startSize=26;horizontalStack=0;resizeParent=1;resizeParentMax=0;resizeLast=0;collapsible=1;marginBottom=0;whiteSpace=wrap;html=1;" vertex="1" parent="1">
          <mxGeometry x="370" y="40" width="160" height="60" as="geometry" />
        </mxCell>
        <mxCell id="JqEnsVnNaXc9Rsa2S4pe-3" value="" style="line;strokeWidth=1;fillColor=none;align=left;verticalAlign=middle;spacingTop=-1;spacingLeft=3;spacingRight=3;rotatable=0;labelPosition=right;points=[];portConstraint=eastwest;strokeColor=inherit;" vertex="1" parent="JqEnsVnNaXc9Rsa2S4pe-1">
          <mxGeometry y="26" width="160" height="8" as="geometry" />
        </mxCell>
        <mxCell id="JqEnsVnNaXc9Rsa2S4pe-4" value="+ compareTo(o: T): int" style="text;strokeColor=none;fillColor=none;align=left;verticalAlign=top;spacingLeft=4;spacingRight=4;overflow=hidden;rotatable=0;points=[[0,0.5],[1,0.5]];portConstraint=eastwest;whiteSpace=wrap;html=1;" vertex="1" parent="JqEnsVnNaXc9Rsa2S4pe-1">
          <mxGeometry y="34" width="160" height="26" as="geometry" />
        </mxCell>
        <mxCell id="JqEnsVnNaXc9Rsa2S4pe-5" value="Geometric Object&amp;nbsp;" style="swimlane;fontStyle=1;align=center;verticalAlign=top;childLayout=stackLayout;horizontal=1;startSize=26;horizontalStack=0;resizeParent=1;resizeParentMax=0;resizeLast=0;collapsible=1;marginBottom=0;whiteSpace=wrap;html=1;" vertex="1" parent="1">
          <mxGeometry x="245" y="160" width="410" height="190" as="geometry" />
        </mxCell>
        <mxCell id="JqEnsVnNaXc9Rsa2S4pe-6" value="- color: String&lt;div&gt;- filled: boolean&lt;/div&gt;&lt;div&gt;- dateCreated: Date&lt;/div&gt;" style="text;strokeColor=none;fillColor=none;align=left;verticalAlign=top;spacingLeft=4;spacingRight=4;overflow=hidden;rotatable=0;points=[[0,0.5],[1,0.5]];portConstraint=eastwest;whiteSpace=wrap;html=1;" vertex="1" parent="JqEnsVnNaXc9Rsa2S4pe-5">
          <mxGeometry y="26" width="410" height="54" as="geometry" />
        </mxCell>
        <mxCell id="JqEnsVnNaXc9Rsa2S4pe-7" value="" style="line;strokeWidth=1;fillColor=none;align=left;verticalAlign=middle;spacingTop=-1;spacingLeft=3;spacingRight=3;rotatable=0;labelPosition=right;points=[];portConstraint=eastwest;strokeColor=inherit;" vertex="1" parent="JqEnsVnNaXc9Rsa2S4pe-5">
          <mxGeometry y="80" width="410" height="8" as="geometry" />
        </mxCell>
        <mxCell id="JqEnsVnNaXc9Rsa2S4pe-8" value="+ GeometricObject()&lt;div&gt;+ getColor(): String&lt;/div&gt;&lt;div&gt;+ setColor(color: String): void&lt;/div&gt;&lt;div&gt;+ isFIlled(): boolean&lt;/div&gt;&lt;div&gt;+ compareTo(o: GeometricObject):int&lt;/div&gt;&lt;div&gt;+ static max(o1: GeometricObject, o2: GeometricObject): GeometricObject&lt;/div&gt;" style="text;strokeColor=none;fillColor=none;align=left;verticalAlign=top;spacingLeft=4;spacingRight=4;overflow=hidden;rotatable=0;points=[[0,0.5],[1,0.5]];portConstraint=eastwest;whiteSpace=wrap;html=1;" vertex="1" parent="JqEnsVnNaXc9Rsa2S4pe-5">
          <mxGeometry y="88" width="410" height="102" as="geometry" />
        </mxCell>
        <mxCell id="JqEnsVnNaXc9Rsa2S4pe-10" value="Circle" style="swimlane;fontStyle=1;align=center;verticalAlign=top;childLayout=stackLayout;horizontal=1;startSize=26;horizontalStack=0;resizeParent=1;resizeParentMax=0;resizeLast=0;collapsible=1;marginBottom=0;whiteSpace=wrap;html=1;" vertex="1" parent="1">
          <mxGeometry x="210" y="410" width="160" height="120" as="geometry" />
        </mxCell>
        <mxCell id="JqEnsVnNaXc9Rsa2S4pe-11" value="- radius: double" style="text;strokeColor=none;fillColor=none;align=left;verticalAlign=top;spacingLeft=4;spacingRight=4;overflow=hidden;rotatable=0;points=[[0,0.5],[1,0.5]];portConstraint=eastwest;whiteSpace=wrap;html=1;" vertex="1" parent="JqEnsVnNaXc9Rsa2S4pe-10">
          <mxGeometry y="26" width="160" height="26" as="geometry" />
        </mxCell>
        <mxCell id="JqEnsVnNaXc9Rsa2S4pe-12" value="" style="line;strokeWidth=1;fillColor=none;align=left;verticalAlign=middle;spacingTop=-1;spacingLeft=3;spacingRight=3;rotatable=0;labelPosition=right;points=[];portConstraint=eastwest;strokeColor=inherit;" vertex="1" parent="JqEnsVnNaXc9Rsa2S4pe-10">
          <mxGeometry y="52" width="160" height="8" as="geometry" />
        </mxCell>
        <mxCell id="JqEnsVnNaXc9Rsa2S4pe-13" value="+ Circle(radius: double)&lt;div&gt;+ getArea(): double&lt;/div&gt;&lt;div&gt;+ getPerimeter(): double&lt;/div&gt;" style="text;strokeColor=none;fillColor=none;align=left;verticalAlign=top;spacingLeft=4;spacingRight=4;overflow=hidden;rotatable=0;points=[[0,0.5],[1,0.5]];portConstraint=eastwest;whiteSpace=wrap;html=1;" vertex="1" parent="JqEnsVnNaXc9Rsa2S4pe-10">
          <mxGeometry y="60" width="160" height="60" as="geometry" />
        </mxCell>
        <mxCell id="JqEnsVnNaXc9Rsa2S4pe-14" value="Rectangle" style="swimlane;fontStyle=1;align=center;verticalAlign=top;childLayout=stackLayout;horizontal=1;startSize=26;horizontalStack=0;resizeParent=1;resizeParentMax=0;resizeLast=0;collapsible=1;marginBottom=0;whiteSpace=wrap;html=1;" vertex="1" parent="1">
          <mxGeometry x="510" y="410" width="240" height="120" as="geometry" />
        </mxCell>
        <mxCell id="JqEnsVnNaXc9Rsa2S4pe-15" value="- width: double&lt;div&gt;- height: double&lt;/div&gt;" style="text;strokeColor=none;fillColor=none;align=left;verticalAlign=top;spacingLeft=4;spacingRight=4;overflow=hidden;rotatable=0;points=[[0,0.5],[1,0.5]];portConstraint=eastwest;whiteSpace=wrap;html=1;" vertex="1" parent="JqEnsVnNaXc9Rsa2S4pe-14">
          <mxGeometry y="26" width="240" height="34" as="geometry" />
        </mxCell>
        <mxCell id="JqEnsVnNaXc9Rsa2S4pe-16" value="" style="line;strokeWidth=1;fillColor=none;align=left;verticalAlign=middle;spacingTop=-1;spacingLeft=3;spacingRight=3;rotatable=0;labelPosition=right;points=[];portConstraint=eastwest;strokeColor=inherit;" vertex="1" parent="JqEnsVnNaXc9Rsa2S4pe-14">
          <mxGeometry y="60" width="240" height="8" as="geometry" />
        </mxCell>
        <mxCell id="JqEnsVnNaXc9Rsa2S4pe-17" value="+ Rectangle(width: double, height: double)&lt;div&gt;+ getArea(): double&lt;/div&gt;&lt;div&gt;+ getPerimeter(): double&lt;/div&gt;" style="text;strokeColor=none;fillColor=none;align=left;verticalAlign=top;spacingLeft=4;spacingRight=4;overflow=hidden;rotatable=0;points=[[0,0.5],[1,0.5]];portConstraint=eastwest;whiteSpace=wrap;html=1;" vertex="1" parent="JqEnsVnNaXc9Rsa2S4pe-14">
          <mxGeometry y="68" width="240" height="52" as="geometry" />
        </mxCell>
        <mxCell id="JqEnsVnNaXc9Rsa2S4pe-18" value="" style="endArrow=block;endSize=16;endFill=0;html=1;rounded=0;exitX=0.45;exitY=-0.017;exitDx=0;exitDy=0;exitPerimeter=0;entryX=0.18;entryY=1;entryDx=0;entryDy=0;entryPerimeter=0;" edge="1" parent="1" source="JqEnsVnNaXc9Rsa2S4pe-10" target="JqEnsVnNaXc9Rsa2S4pe-8">
          <mxGeometry width="160" relative="1" as="geometry">
            <mxPoint x="245" y="380" as="sourcePoint" />
            <mxPoint x="325" y="380" as="targetPoint" />
          </mxGeometry>
        </mxCell>
        <mxCell id="JqEnsVnNaXc9Rsa2S4pe-19" value="" style="endArrow=block;endSize=16;endFill=0;html=1;rounded=0;exitX=0.45;exitY=-0.017;exitDx=0;exitDy=0;exitPerimeter=0;entryX=0.734;entryY=1;entryDx=0;entryDy=0;entryPerimeter=0;" edge="1" parent="1" target="JqEnsVnNaXc9Rsa2S4pe-8">
          <mxGeometry width="160" relative="1" as="geometry">
            <mxPoint x="618" y="410" as="sourcePoint" />
            <mxPoint x="655" y="352" as="targetPoint" />
            <Array as="points" />
          </mxGeometry>
        </mxCell>
        <mxCell id="JqEnsVnNaXc9Rsa2S4pe-20" value="" style="endArrow=block;dashed=1;endFill=0;endSize=12;html=1;rounded=0;exitX=0.473;exitY=-0.011;exitDx=0;exitDy=0;exitPerimeter=0;entryX=0.519;entryY=1.077;entryDx=0;entryDy=0;entryPerimeter=0;" edge="1" parent="1" source="JqEnsVnNaXc9Rsa2S4pe-5" target="JqEnsVnNaXc9Rsa2S4pe-4">
          <mxGeometry width="160" relative="1" as="geometry">
            <mxPoint x="400" y="130" as="sourcePoint" />
            <mxPoint x="480" y="130" as="targetPoint" />
          </mxGeometry>
        </mxCell>
      </root>
    </mxGraphModel>
  </diagram>
</mxfile>
